<svg xmlns="http://www.w3.org/2000/svg" xmlns:xlink="http://www.w3.org/1999/xlink" viewBox="0 0 313.07 428.24"><defs><style>.cls-1{fill:url(#linear-gradient);}.cls-2{fill:url(#linear-gradient-2);}.cls-3{fill:url(#linear-gradient-3);}.cls-4{fill:url(#linear-gradient-4);}</style><linearGradient id="linear-gradient" x1="-44.73" y1="239.88" x2="315.46" y2="326.28" gradientUnits="userSpaceOnUse"><stop offset="0" stop-color="#fff"/><stop offset="0.59" stop-color="#a7cf3b"/></linearGradient><linearGradient id="linear-gradient-2" x1="-97.34" y1="243.61" x2="188.19" y2="353.97" gradientUnits="userSpaceOnUse"><stop offset="0" stop-color="#e6e7e8"/><stop offset="0.01" stop-color="#e5e6e4"/><stop offset="0.07" stop-color="#d6e1bd"/><stop offset="0.15" stop-color="#cadc9a"/><stop offset="0.23" stop-color="#bfd87c"/><stop offset="0.31" stop-color="#b6d564"/><stop offset="0.41" stop-color="#afd252"/><stop offset="0.53" stop-color="#abd045"/><stop offset="0.68" stop-color="#a8cf3d"/><stop offset="1" stop-color="#a7cf3b"/></linearGradient><linearGradient id="linear-gradient-3" x1="49.11" y1="280.82" x2="324.27" y2="280.17" gradientUnits="userSpaceOnUse"><stop offset="0.13" stop-color="#fff"/><stop offset="1" stop-color="#a7cf3b"/></linearGradient><linearGradient id="linear-gradient-4" x1="128.36" y1="35.62" x2="520.88" y2="222.08" gradientUnits="userSpaceOnUse"><stop offset="0" stop-color="#e6e7e8"/><stop offset="0.2" stop-color="#a7cf3b"/></linearGradient></defs><g id="Layer_2" data-name="Layer 2"><g id="Layer_1-2" data-name="Layer 1"><path class="cls-1" d="M78.44,425.27c7.63-9.86,16.52-24.74,17.13-43.2.83-25.57-15-33.91-21.41-63.05-1.45-6.59-10.29-46.84,14.4-79.4,25.88-34.12,69-33.9,70.83-33.86,35.54.77,67,23.67,78.23,52.15,9.95,25.17,2.93,51.51-.78,65.39-6.41,24-15.28,30-17.12,49.42-2.09,22,6.83,41,14.79,53.71a154.65,154.65,0,0,0,48.26-42.81c26.54-36.32,39.77-89.09,22.57-140.5-20.49-61.24-73-86.52-83.29-91.45a153.26,153.26,0,0,0-124.93-3.9c-12,4.9-54,23.75-78.61,70.84A151.41,151.41,0,0,0,1.39,290.72c.09,6,.86,32.27,14.79,62.72C34.24,392.91,63.38,415.32,78.44,425.27Z"/><path class="cls-2" d="M82,428.24a134.78,134.78,0,0,0,11.42-35.81c2.08-12.27,4.47-26.39-.78-42.29-3.41-10.34-6.89-11.85-11.67-21.53-11.74-23.74-7.65-48.6-6.75-53.45,7.21-39,43.34-58.87,48.62-61.66-8.61-3.86-24.26-9.37-43.43-7.36-34.72,3.65-61.47,29.92-72.65,56.3-20.19,47.64,10.45,95.45,22,113.43C36.87,388.58,53,409.92,82,428.24Z"/><path class="cls-3" d="M104.57,145c13.08.93,51.59,5.38,86.37,35.48,29.78,25.79,40.19,56,44.88,70.19,2.74,8.28,9.74,36.22,5.46,55-2.72,11.93-6.18,14-12.46,34.87-5.6,18.59-9,30-8.08,44.37.56,8.26,3,23.62,15.08,41.25A159.83,159.83,0,0,0,274,393.86c11.3-13.15,38-48.61,38.92-100.56.22-12.17-.31-61.94-38.31-105.49-8-9.14-41.42-45.3-97.38-52A153.59,153.59,0,0,0,104.57,145Z"/><path class="cls-4" d="M189.32,0c-8.38.93-29.87,4.49-48.26,21.79-7.39,7-21.71,20.42-22.19,40.87-.44,19,11.14,42.08,31.92,47.48,1.37.36,21.67,5.27,35.8-9,14.69-14.78,8.65-36.06,8.37-37-1.32-4.36-3.34-11-9.34-15.77-5.53-4.34-11.65-4.8-15-11.09a18.68,18.68,0,0,1-1.75-6.22C167.4,17,187.83,1.13,189.32,0Z"/></g></g></svg>